<?xml version="1.0" encoding="utf-8"?>
<!-- Generator: Adobe Illustrator 19.0.1, SVG Export Plug-In . SVG Version: 6.00 Build 0)  -->
<svg version="1.1" id="Layer_1" xmlns="http://www.w3.org/2000/svg" xmlns:xlink="http://www.w3.org/1999/xlink" x="0px" y="0px"
	 viewBox="0 0 200 200" style="enable-background:new 0 0 200 200;" xml:space="preserve">
<style type="text/css">
	.st0{fill:#FFFFFF;}
</style>
<g>
	<path class="st0" d="M100,198c-54,0-98-44-98-98C2,46,46,2,100,2c54,0,98,44,98,98C198,154,154,198,100,198z"/>
	<path d="M100,4c53,0,96,43,96,96s-43,96-96,96S4,153,4,100S47,4,100,4 M100,0C44.9,0,0,44.9,0,100s44.9,100,100,100
		s100-44.9,100-100S155.1,0,100,0L100,0z"/>
</g>
<g>
	<path class="st0" d="M15,198c-7.2,0-13-5.8-13-13s5.8-13,13-13s13,5.8,13,13S22.2,198,15,198z"/>
	<path d="M15,174c6.1,0,11,4.9,11,11s-4.9,11-11,11s-11-4.9-11-11S8.9,174,15,174 M15,170c-8.3,0-15,6.7-15,15s6.7,15,15,15
		s15-6.7,15-15S23.3,170,15,170L15,170z"/>
</g>
</svg>
